<svg xmlns="http://www.w3.org/2000/svg" width="18" height="18" viewBox="0 0 18 18">
    <defs>
        <clipPath id="cpaipq2hfa">
            <path data-name="Rectangle 3993" transform="translate(-7928 -8518)" style="stroke:#707070;fill:#fff" d="M0 0h18v18H0z"/>
        </clipPath>
    </defs>
    <g style="clip-path:url(#cpaipq2hfa)">
        <path d="M9.5 7.64a1.86 1.86 0 1 0 1.86 1.86A1.86 1.86 0 0 0 9.5 7.64zm7.448-1.84a4.9 4.9 0 0 0-.315-1.7 3 3 0 0 0-1.74-1.74 4.9 4.9 0 0 0-1.693-.307C12.23 2 11.945 2 9.5 2s-2.73 0-3.7.053a4.9 4.9 0 0 0-1.695.315 3 3 0 0 0-1.74 1.74A4.9 4.9 0 0 0 2.053 5.8C2 6.77 2 7.055 2 9.5s0 2.73.053 3.7a5.145 5.145 0 0 0 .315 1.7 2.955 2.955 0 0 0 .683 1.05 2.917 2.917 0 0 0 1.057.683 4.9 4.9 0 0 0 1.7.315C6.77 17 7.055 17 9.5 17s2.73 0 3.7-.052a4.9 4.9 0 0 0 1.7-.315 2.917 2.917 0 0 0 1.057-.683 2.955 2.955 0 0 0 .682-1.05 4.95 4.95 0 0 0 .315-1.7C17 12.23 17 11.945 17 9.5s0-2.73-.052-3.7zm-1.905 6a4.3 4.3 0 0 1-.292 1.35 2.9 2.9 0 0 1-1.6 1.6 4.3 4.3 0 0 1-1.358.263H7.205a4.3 4.3 0 0 1-1.358-.262 2.792 2.792 0 0 1-1.6-1.6 4.117 4.117 0 0 1-.252-1.351V7.2a4.117 4.117 0 0 1 .255-1.353 2.632 2.632 0 0 1 .65-.982 2.693 2.693 0 0 1 .953-.615 4.3 4.3 0 0 1 1.357-.262h4.59a4.3 4.3 0 0 1 1.358.263 2.792 2.792 0 0 1 1.6 1.6 4.3 4.3 0 0 1 .263 1.358v2.295c0 1.545.052 1.7.03 2.3zm-1.2-5.58a1.785 1.785 0 0 0-1.057-1.057A3 3 0 0 0 11.75 5h-4.5a3 3 0 0 0-1.035.2 1.785 1.785 0 0 0-1.058 1.02A3.2 3.2 0 0 0 5 7.25v4.5a3.2 3.2 0 0 0 .2 1.035 1.785 1.785 0 0 0 1.057 1.057 3.2 3.2 0 0 0 1 .2h4.5a3 3 0 0 0 1.035-.2 1.785 1.785 0 0 0 1.057-1.057 3 3 0 0 0 .2-1.035v-4.5a2.835 2.835 0 0 0-.195-1.035zM9.5 12.365A2.857 2.857 0 0 1 6.642 9.5 2.865 2.865 0 1 1 9.5 12.365zm3-5.167a.675.675 0 0 1 0-1.343.675.675 0 0 1 0 1.342z" transform="translate(-.5 -.5)" style="fill:#fff" data-name="Mask Group 1836"/>
    </g>
</svg>
