<svg xmlns="http://www.w3.org/2000/svg" width="18" height="18" viewBox="0 0 18 18">
    <defs>
        <clipPath id="lifrf9k66a">
            <path data-name="Rectangle 3994" transform="translate(-7895 -8518)" style="stroke:#707070;fill:#fff" d="M0 0h18v18H0z"/>
        </clipPath>
    </defs>
    <g style="clip-path:url(#lifrf9k66a)">
        <path d="M9.494 2a7.5 7.5 0 1 0 7.5 7.5 7.5 7.5 0 0 0-7.5-7.5zm2.385 11.364a.529.529 0 0 1-.751.264l-2.037-1.582-1.306 1.206a.225.225 0 0 1-.214.029l.25-2.241.008.006.006-.046s3.665-3.334 3.813-3.476.1-.172.1-.172c.009-.173-.271 0-.271 0l-4.854 3.122L4.6 9.786s-.311-.111-.34-.356.35-.375.35-.375l8.04-3.194s.661-.294.661.193z" transform="translate(-.494 -.5)" style="fill:#fff" data-name="Mask Group 1837"/>
    </g>
</svg>
