<svg xmlns="http://www.w3.org/2000/svg" width="18" height="18" viewBox="0 0 18 18">
    <defs>
        <clipPath id="ye8p0mnmaa">
            <path data-name="Rectangle 3994" transform="translate(-7895 -8518)" style="stroke:#707070;fill:#fff" d="M0 0h18v18H0z"/>
        </clipPath>
    </defs>
    <g data-name="Mask Group 1837" transform="translate(7895 8518)" style="clip-path:url(#ye8p0mnmaa)">
        <g data-name="Layer 2">
            <path data-name="Path 925" d="M13.264.443 11.879.082a2.331 2.331 0 0 0-2.853 1.654L8.68 3.043a7.138 7.138 0 0 1 4.584-2.6z" transform="translate(-7900.295 -8516.532)" style="fill:#fff"/>
            <path data-name="Path 926" d="m.421 39.33-.339 1.28a2.331 2.331 0 0 0 1.654 2.851l1.322.352A7.14 7.14 0 0 1 .421 39.33z" transform="translate(-7893.529 -8547.195)" style="fill:#fff"/>
            <path data-name="Path 927" d="M55.213 8.854 53.73 8.46a7.138 7.138 0 0 1 2.732 4.78l.408-1.542a2.331 2.331 0 0 0-1.657-2.844z" transform="translate(-7935.42 -8523.126)" style="fill:#fff"/>
            <path data-name="Path 928" d="m38.69 56.428 1.421.383a2.331 2.331 0 0 0 2.851-1.654l.4-1.507a7.142 7.142 0 0 1-4.673 2.778z" transform="translate(-7923.693 -8558.361)" style="fill:#fff"/>
            <path data-name="Path 929" d="M11.06 4.54a6.527 6.527 0 1 0 6.525 6.527A6.527 6.527 0 0 0 11.06 4.54zM7.363 7.8a1.864 1.864 0 1 1 1.478 2.179A1.864 1.864 0 0 1 7.363 7.8zm2.712 5.64a1.864 1.864 0 1 1-.285-1.4 1.864 1.864 0 0 1 .285 1.396zm.791-1.509a.828.828 0 1 1 .623-.128.828.828 0 0 1-.623.128zm3.888 2.408a1.864 1.864 0 1 1-1.478-2.183 1.864 1.864 0 0 1 1.478 2.178zM13.52 10.88a1.86 1.86 0 1 1 1.4-.285 1.864 1.864 0 0 1-1.4.285z" transform="translate(-7897.059 -8520.07)" style="fill:#ee135b"/>
        </g>
    </g>
</svg>
