<svg xmlns="http://www.w3.org/2000/svg" width="41.998" height="41.998" viewBox="0 0 41.998 41.998">
    <g data-name="vuesax/bulk/like">
        <path data-name="Vector" d="M26.249 29.486h-1.33a5.228 5.228 0 0 0-3.71 1.522l-2.992 2.957a3.539 3.539 0 0 1-4.952 0l-2.992-2.957a5.258 5.258 0 0 0-3.71-1.522H5.25A5.22 5.22 0 0 1 0 24.289V5.2A5.221 5.221 0 0 1 5.25 0h21a5.221 5.221 0 0 1 5.25 5.2v19.089a5.232 5.232 0 0 1-5.251 5.197z" transform="translate(5.25 3.517)" style="fill:#284cc5"/>
        <path data-name="Vector" d="M8.365 13.929a1.862 1.862 0 0 1-.98 0C5.11 13.142 0 9.9 0 4.392A4.375 4.375 0 0 1 7.875 1.75a4.375 4.375 0 0 1 7.875 2.642c-.018 5.508-5.11 8.75-7.385 9.537z" style="fill:#ffb342" transform="translate(13.124 12.25)"/>
    </g>
</svg>
