<svg xmlns="http://www.w3.org/2000/svg" width="41.997" height="41.997" viewBox="0 0 41.997 41.997">
    <g data-name="vuesax/bulk/microphone-2">
        <path d="M26.143.017a1.217 1.217 0 0 0-1.225 1.225v2.765a11.234 11.234 0 0 1-22.468 0V1.225A1.217 1.217 0 0 0 1.225 0 1.217 1.217 0 0 0 0 1.225V3.99A13.7 13.7 0 0 0 12.459 17.6v3.727a1.225 1.225 0 1 0 2.45 0V17.6A13.7 13.7 0 0 0 27.368 3.99V1.225A1.236 1.236 0 0 0 26.143.017z" transform="translate(7.314 15.941)" style="fill:#ffb342"/>
        <path data-name="Vector" d="M7.734 0A7.737 7.737 0 0 0 0 7.734v8.959a7.734 7.734 0 1 0 15.469 0V7.734A7.737 7.737 0 0 0 7.734 0zm2.292 12.161a1.009 1.009 0 0 1-.98.752 1.351 1.351 0 0 1-.262-.035 3.827 3.827 0 0 0-2.082 0 1.014 1.014 0 1 1-.525-1.96 6.011 6.011 0 0 1 3.15 0 1.018 1.018 0 0 1 .7 1.243zm.927-3.395a1.015 1.015 0 0 1-.962.665 1.213 1.213 0 0 1-.35-.052 5.5 5.5 0 0 0-3.815 0 1.032 1.032 0 0 1-1.312-.612 1.007 1.007 0 0 1 .612-1.295 7.629 7.629 0 0 1 5.215 0 1.013 1.013 0 0 1 .613 1.295z" transform="translate(13.264 3.5)" style="fill:#2a4fcd"/>
    </g>
</svg>
