<svg xmlns="http://www.w3.org/2000/svg" width="15.996" height="15.996" viewBox="0 0 15.996 15.996">
    <g data-name="vuesax/outline/mobile">
        <path d="M7.831 14.33h-4C.893 14.33 0 13.437 0 10.5V3.832C0 .893.893 0 3.832 0h4c2.939 0 3.832.893 3.832 3.832V10.5c0 2.937-.893 3.83-3.833 3.83zM3.832 1C1.446 1 1 1.453 1 3.832V10.5c0 2.379.447 2.833 2.833 2.833h4c2.386 0 2.833-.453 2.833-2.833V3.832C10.664 1.453 10.217 1 7.831 1z" transform="translate(2.166 .833)" style="fill:#9e9e9e"/>
        <path data-name="Vector" d="M3.166 1H.5A.5.5 0 0 1 0 .5.5.5 0 0 1 .5 0h2.666a.5.5 0 0 1 .5.5.5.5 0 0 1-.5.5z" transform="translate(6.165 3.166)" style="fill:#9e9e9e"/>
        <path data-name="Vector" d="M1.533 3.066a1.533 1.533 0 1 1 1.533-1.533 1.533 1.533 0 0 1-1.533 1.533zm0-2.073a.533.533 0 1 0 .533.533.535.535 0 0 0-.533-.533z" transform="translate(6.465 10.171)" style="fill:#9e9e9e"/>
    </g>
</svg>
