<svg xmlns="http://www.w3.org/2000/svg" width="41.998" height="41.998" viewBox="0 0 41.998 41.998">
    <g data-name="vuesax/bulk/receipt">
        <path d="M5.652 30.974a3.076 3.076 0 0 1 4.882.262L12.3 33.6a3.042 3.042 0 0 0 5.127 0l1.773-2.364a3.076 3.076 0 0 1 4.882-.262c3.115 3.325 5.652 2.222 5.652-2.432V8.82C29.749 1.767 28.1 0 21.489 0H8.26C1.645 0 0 1.767 0 8.82v19.7c0 4.68 2.555 5.761 5.652 2.454z" transform="translate(6.125 3.5)" style="fill:#284cc5"/>
        <path data-name="Vector" d="M15.312 2.625h-14A1.322 1.322 0 0 1 0 1.312 1.322 1.322 0 0 1 1.312 0h14a1.322 1.322 0 0 1 1.312 1.312 1.322 1.322 0 0 1-1.312 1.313z" transform="translate(12.687 10.937)" style="fill:#ffb342"/>
        <path data-name="Vector" d="M11.812 2.625h-10.5A1.322 1.322 0 0 1 0 1.312 1.322 1.322 0 0 1 1.312 0h10.5a1.322 1.322 0 0 1 1.312 1.312 1.322 1.322 0 0 1-1.312 1.313z" transform="translate(14.437 17.937)" style="fill:#ffb342"/>
    </g>
</svg>
